<?xml version="1.0" encoding="UTF-8"?>
<svg id="Camada_1" data-name="Camada 1" xmlns="http://www.w3.org/2000/svg" viewBox="0 0 600.92 303.13">
  <path d="M.46,181.79c19,43.43,43.51,70.89,59.75,86.31,15.9,15.09,29.14,27.34,50.62,32.37,31.98,7.48,59.39-6.39,69.71-11.62,7.99-4.04,39.44-29.45,69.37-68.9,0,0,35.7-38.34,56.27-129.9,4.32-22.96,2.23-41.17-1.99-51.82C292.95,9.84,255.34,2.48,251.08,1.71c-40.5-7.35-72.35,20.96-79.67,27.39-6.75,5.93-31.76,29.35-37.34,67.22-7.82,52.98,28.46,92.99,46.47,112.86,32.53,35.89,72.58,51.88,98.76,53.11,9.65.45,16.29-1.15,18.26-1.66,11.88-3.08,23.23-10.22,43.98-35.68,21.99-26.98,20.92-33.29,38.17-48.96,11.84-10.75,22.48-20.13,35.68-18.26,15.25,2.17,24.28,17.97,24.9,19.09,2.83,5.12,3.54,9.25,4.98,19.92,5.18,38.42,3.89,43.21,9.13,50.62,5.76,8.15,16.03,14.68,26.56,14.94,11.94.29,20.95-7.57,33.2-18.26,15.51-13.54,15.11-19.42,26.56-24.9,3.01-1.44,15.31-7.1,29.88-3.32,20.33,5.28,28.77,24.73,29.88,27.39" style="fill: none; stroke: #872323; stroke-miterlimit: 10;"/>
</svg>